<svg width="170" height="68" viewBox="0 0 170 68" fill="none" xmlns="http://www.w3.org/2000/svg">
<path d="M132.271 17.8968C132.334 17.9622 132.394 18.0312 132.452 18.1038C134.467 20.643 136.808 23.5673 139.084 26.3826C140.154 27.7503 141.203 29.1016 142.246 30.4475C145.523 34.6704 148.616 38.6572 151.998 42.6749C152.219 42.9401 152.552 43.0836 152.895 43.08C153.246 43.0727 153.571 42.9111 153.785 42.635C156.426 39.2385 158.473 36.2634 160.042 33.5407C161.454 31.0923 163.012 27.318 162.422 23.2277C162.044 20.6212 160.843 18.4798 159.042 17.1975C156.615 15.472 153.827 15.8171 151.916 16.4092C149.322 17.212 146.652 18.9375 143.981 21.5385C143.465 22.0398 142.755 22.305 142.034 22.2559C141.3 22.2105 140.617 21.8563 140.159 21.2842L139.482 20.4378C138.639 19.3807 138.735 17.8768 139.707 16.9396C147.564 9.35828 154.864 8.54275 160.011 10.6261C153.97 4.45241 145.55 0.618164 136.23 0.618164C127.251 0.618164 119.106 4.18178 113.12 9.96311C118.311 8.8043 125.098 10.4898 132.271 17.8968Z" fill="#00BED6"/>
<path d="M168.691 26.5666C168.395 30.0866 167.24 33.6266 165.483 36.6762C163.531 40.0636 160.556 44.2484 156.638 49.1125C156.078 49.8063 155.499 50.5147 154.9 51.2358C154.391 51.8515 153.63 52.1912 152.84 52.1803C152.044 52.1657 151.312 51.797 150.829 51.1667L150.431 50.6455C149.885 49.9298 149.345 49.2215 148.869 48.6439C144.626 43.6418 131.322 26.8608 128.75 23.3281C125.544 19.7409 122.282 17.3942 119.096 16.4079C117.184 15.8158 114.396 15.4707 111.969 17.1962C110.167 18.4767 108.969 20.62 108.591 23.2264C108 27.3131 109.559 31.0892 110.97 33.5376C113.727 38.329 117.398 42.9606 120.954 47.2544C122.433 49.0417 123.975 50.8507 125.666 52.7851L137.821 66.8252C137.902 66.9197 137.97 67.0232 138.035 67.1249C155.575 66.1859 169.51 51.6681 169.51 33.8954C169.51 31.378 169.221 28.926 168.691 26.5666Z" fill="#00BED6"/>
<path d="M105.529 36.6762C104.488 34.869 103.662 32.8964 103.093 30.8604C103.002 31.8611 102.95 32.8728 102.95 33.8972C102.95 50.0425 114.447 63.4977 129.699 66.5328C117.644 53.6315 109.514 43.5927 105.529 36.6762Z" fill="#00BED6"/>
<path d="M61.3775 35.9306C62.4055 35.9306 63.2374 35.0969 63.2374 34.0707V34.0035C63.2374 32.9754 62.4037 32.1436 61.3775 32.1436C60.3494 32.1436 59.5176 32.9772 59.5176 34.0035V34.0707C59.5176 35.0987 60.3513 35.9306 61.3775 35.9306Z" fill="#1D1114"/>
<path d="M54.9839 35.9306C56.012 35.9306 56.8438 35.0969 56.8438 34.0707V34.0035C56.8438 32.9754 56.0102 32.1436 54.9839 32.1436C53.9559 32.1436 53.124 32.9772 53.124 34.0035V34.0707C53.124 35.0987 53.9559 35.9306 54.9839 35.9306Z" fill="#1D1114"/>
<path d="M76.023 35.9657C77.051 35.9657 77.8829 35.132 77.8829 34.1058V34.0386C77.8829 33.0106 77.0492 32.1787 76.023 32.1787C74.995 32.1787 74.1631 33.0124 74.1631 34.0386V34.1058C74.1613 35.1338 74.995 35.9657 76.023 35.9657Z" fill="#1D1114"/>
<path d="M90.0362 7.55078C89.1154 7.55078 88.3689 8.29729 88.3689 9.21816V21.9614C88.3689 23.1784 88.2672 23.9902 88.0982 24.3971C87.7259 25.14 86.9467 25.5141 85.6953 25.5141H83.5992H82.4822H77.1041C77.6454 24.8712 77.916 23.5852 77.916 21.5891V15.7751C77.916 14.8015 77.1259 14.0114 76.1523 14.0114H75.9235C74.9499 14.0114 74.1598 14.8015 74.1598 15.7751V21.7925C74.1598 22.9767 74.0236 23.8558 73.753 24.3644C73.3461 25.1418 72.6033 25.5141 71.4862 25.5141H68.8816H67.9662H62.5227C63.0985 24.8712 63.3673 23.5852 63.3673 21.5891V15.7533C63.3673 14.7906 62.5881 14.0114 61.6254 14.0114H61.3548C60.3922 14.0114 59.613 14.7906 59.613 15.7533V21.7925C59.613 22.9767 59.4786 23.8558 59.2079 24.3644C58.8011 25.1418 58.0237 25.5141 56.9067 25.5141H54.1677H53.2867H47.4691H52.0916H46.1722H45.393H25.3318H24.5526H18.6333H17.8541H19.4996H18.7205H21.6157H20.6675H19.2145C16.6771 25.5141 15.4257 24.161 15.4257 21.4547V12.4385C15.4257 11.4777 14.6465 10.6966 13.6838 10.6966H11.1283C10.8231 10.7312 9.47177 10.7312 7.06879 10.7312C2.73869 10.7312 0.0668945 13.877 0.0668945 18.9518C0.0668945 23.6542 2.73869 26.9018 7.06879 26.9018C8.75978 26.9018 10.2147 26.0554 11.3989 24.3644C12.1781 27.374 14.5792 29.3702 17.5217 29.3702H20.6657H21.6138H18.7186H19.4978H17.8522H18.6315H24.5508H25.33H45.3985H46.1777H52.0971H47.4745H53.2922H54.1731H67.9716H68.8871H82.484H83.601H86.4763C90.2651 29.3702 92.1595 27.3395 92.1595 23.2474V9.21998C92.1595 8.2991 91.413 7.5526 90.4921 7.5526H90.0362V7.55078ZM11.5024 18.5794C11.5024 21.4547 10.0148 23.7541 7.54466 23.7541C5.2779 23.7541 3.82303 21.5219 3.82303 18.9173C3.82303 15.7714 5.44682 13.6736 8.08593 13.6736H11.5024V18.5794Z" fill="#1D1114"/>
<path d="M0.978901 40.4482H2.80975C3.31469 40.4482 3.72517 40.8587 3.72517 41.3637V56.7969C3.72517 57.3018 4.13566 57.7123 4.64059 57.7123H11.5571C12.0621 57.7123 12.4725 58.1228 12.4725 58.6277V60.1099C12.4725 60.6148 12.0621 61.0253 11.5571 61.0253H0.978901C0.473965 61.0253 0.0634766 60.6148 0.0634766 60.1099V41.3637C0.0634766 40.8587 0.472149 40.4482 0.978901 40.4482Z" fill="#1D1114"/>
<path d="M23.5462 59.1074H23.459C22.9559 59.903 22.3147 60.4787 21.541 60.8365C20.7654 61.1944 19.9136 61.3742 18.9836 61.3742C18.3443 61.3742 17.7195 61.287 17.1092 61.1126C16.4989 60.9382 15.9558 60.6767 15.4818 60.328C15.0077 59.9792 14.6245 59.5433 14.3339 59.0202C14.0432 58.4971 13.8979 57.8868 13.8979 57.1894C13.8979 56.4338 14.0324 55.789 14.3048 55.2568C14.5754 54.7246 14.9387 54.2778 15.3946 53.92C15.8505 53.5622 16.3772 53.2752 16.9784 53.0627C17.5778 52.8502 18.2044 52.6904 18.8529 52.5832C19.5013 52.4779 20.1551 52.4088 20.8145 52.3798C21.472 52.3507 22.0932 52.3362 22.6744 52.3362H23.5462V51.9584C23.5462 51.0866 23.2447 50.4327 22.6453 49.9968C22.0441 49.5608 21.2794 49.3429 20.3495 49.3429C19.6139 49.3429 18.9255 49.4737 18.2862 49.7352C17.9029 49.8914 17.5506 50.0821 17.2291 50.3055C16.8622 50.5598 16.3736 50.5398 16.0575 50.2238L15.4854 49.6517C15.0876 49.2539 15.1421 48.6018 15.5907 48.2622C16.172 47.8226 16.8131 47.4848 17.516 47.2487C18.5532 46.8999 19.623 46.7256 20.7273 46.7256C21.7154 46.7256 22.5491 46.8382 23.2265 47.0598C23.904 47.2832 24.4671 47.5684 24.9121 47.9171C25.3571 48.2658 25.7004 48.6672 25.9437 49.1231C26.1853 49.579 26.3597 50.0385 26.4668 50.5035C26.574 50.9685 26.6358 51.4189 26.6557 51.8549C26.6739 52.2908 26.6848 52.674 26.6848 53.0028V60.1082C26.6848 60.6131 26.2743 61.0236 25.7694 61.0236H24.4616C23.9567 61.0236 23.5462 60.6131 23.5462 60.1082V59.1074ZM23.3428 54.7773H22.6163C22.1313 54.7773 21.59 54.7973 20.9888 54.8354C20.3876 54.8736 19.821 54.9662 19.2888 55.1115C18.7566 55.2568 18.3043 55.4693 17.9374 55.7509C17.5687 56.0324 17.3853 56.4247 17.3853 56.9278C17.3853 57.2584 17.4579 57.5345 17.6032 57.7561C17.7485 57.9795 17.9374 58.1684 18.1699 58.3228C18.4024 58.4771 18.664 58.5898 18.9546 58.657C19.2452 58.726 19.5358 58.7587 19.8264 58.7587C21.027 58.7587 21.9133 58.4735 22.4855 57.9014C23.0558 57.331 23.3428 56.55 23.3428 55.562V54.7773Z" fill="#1D1114"/>
<path d="M31.3495 39.0537H33.006C33.5109 39.0537 33.9214 39.4642 33.9214 39.9691V48.8473H34.0086C34.183 48.6148 34.4064 48.3769 34.677 48.1353C34.9476 47.8937 35.2764 47.6649 35.6651 47.4524C36.0519 47.2399 36.4988 47.0655 37.0019 46.9293C37.505 46.793 38.0862 46.7258 38.7455 46.7258C39.7336 46.7258 40.6436 46.9147 41.4773 47.2925C42.3091 47.6703 43.023 48.1898 43.6133 48.8473C44.2036 49.5066 44.6649 50.2822 44.9937 51.1722C45.3224 52.064 45.4877 53.023 45.4877 54.0492C45.4877 55.0772 45.3333 56.0363 45.0227 56.9263C44.7121 57.8181 44.2562 58.5936 43.6568 59.2511C43.0556 59.9105 42.3291 60.4281 41.4773 60.8059C40.6236 61.1837 39.6646 61.3726 38.6002 61.3726C37.6122 61.3726 36.6913 61.1782 35.8394 60.7914C34.9858 60.4045 34.3083 59.7833 33.8052 58.9315H33.747V60.1084C33.747 60.6134 33.3366 61.0239 32.8316 61.0239H31.3495C30.8446 61.0239 30.4341 60.6134 30.4341 60.1084V39.9691C30.4341 39.4642 30.8427 39.0537 31.3495 39.0537ZM42.0004 54.051C42.0004 53.5098 41.9077 52.9849 41.7243 52.4817C41.5408 51.9786 41.2684 51.5336 40.9106 51.1449C40.551 50.758 40.1205 50.4475 39.6174 50.215C39.1124 49.9825 38.5421 49.8662 37.9028 49.8662C37.2634 49.8662 36.6913 49.9825 36.1882 50.215C35.685 50.4475 35.2528 50.758 34.895 51.1449C34.5371 51.5336 34.2647 51.9786 34.0812 52.4817C33.8978 52.9867 33.8052 53.5098 33.8052 54.051C33.8052 54.5941 33.8978 55.1172 34.0812 55.6203C34.2647 56.1234 34.5371 56.5702 34.895 56.9571C35.2528 57.344 35.685 57.6546 36.1882 57.8871C36.6913 58.1196 37.2634 58.2358 37.9028 58.2358C38.5421 58.2358 39.1124 58.1196 39.6174 57.8871C40.1205 57.6546 40.551 57.3458 40.9106 56.9571C41.2684 56.5702 41.5408 56.1234 41.7243 55.6203C41.9096 55.1154 42.0004 54.5923 42.0004 54.051Z" fill="#1D1114"/>
<path d="M57.4637 59.1074H57.3765C56.8734 59.903 56.2322 60.4787 55.4585 60.8365C54.6829 61.1944 53.8311 61.3742 52.9011 61.3742C52.2618 61.3742 51.637 61.287 51.0267 61.1126C50.4164 60.9382 49.8733 60.6767 49.3993 60.328C48.9252 59.9792 48.5419 59.5433 48.2513 59.0202C47.9607 58.4971 47.8154 57.8868 47.8154 57.1894C47.8154 56.4338 47.9498 55.789 48.2223 55.2568C48.4929 54.7246 48.8562 54.2778 49.3121 53.92C49.768 53.5622 50.2947 53.2752 50.8959 53.0627C51.4953 52.8502 52.1219 52.6904 52.7703 52.5832C53.4188 52.4779 54.0726 52.4088 54.732 52.3798C55.3895 52.3507 56.0106 52.3362 56.5919 52.3362H57.4637V51.9584C57.4637 51.0866 57.1622 50.4327 56.5628 49.9968C55.9616 49.5608 55.1969 49.3429 54.267 49.3429C53.5314 49.3429 52.843 49.4737 52.2036 49.7352C51.8204 49.8914 51.468 50.0821 51.1465 50.3055C50.7797 50.5598 50.2911 50.5398 49.975 50.2238L49.4029 49.6517C49.0051 49.2539 49.0596 48.6018 49.5082 48.2622C50.0895 47.8226 50.7306 47.4848 51.4335 47.2487C52.4706 46.8999 53.5405 46.7256 54.6448 46.7256C55.6328 46.7256 56.4665 46.8382 57.144 47.0598C57.8215 47.2832 58.3846 47.5684 58.8296 47.9171C59.2746 48.2658 59.6178 48.6672 59.8612 49.1231C60.1028 49.579 60.2772 50.0385 60.3843 50.5035C60.4915 50.9685 60.5532 51.4189 60.5732 51.8549C60.5914 52.2908 60.6023 52.674 60.6023 53.0028V60.1082C60.6023 60.6131 60.1918 61.0236 59.6869 61.0236H58.3791C57.8742 61.0236 57.4637 60.6131 57.4637 60.1082V59.1074ZM57.2603 54.7773H56.5337C56.0488 54.7773 55.5075 54.7973 54.9063 54.8354C54.3051 54.8736 53.7384 54.9662 53.2063 55.1115C52.6741 55.2568 52.2218 55.4693 51.8549 55.7509C51.4862 56.0324 51.3028 56.4247 51.3028 56.9278C51.3028 57.2584 51.3754 57.5345 51.5207 57.7561C51.666 57.9795 51.8549 58.1684 52.0874 58.3228C52.3199 58.4771 52.5814 58.5898 52.872 58.657C53.1627 58.726 53.4533 58.7587 53.7439 58.7587C54.9445 58.7587 55.8308 58.4735 56.403 57.9014C56.9733 57.331 57.2603 56.55 57.2603 55.562V54.7773Z" fill="#1D1114"/>
<path d="M63.8429 47.0742H65.6792C66.0533 47.0742 66.3894 47.3013 66.5292 47.6482L70.1927 56.7515H70.2508L73.5202 47.6791C73.651 47.3158 73.9961 47.0742 74.3812 47.0742H76.0322C76.677 47.0742 77.1183 47.7208 76.8858 48.322L70.7739 64.0186C70.5215 64.6779 70.2454 65.2537 69.9457 65.7478C69.6442 66.2418 69.2918 66.6577 68.885 66.9974C68.4781 67.337 67.9986 67.5877 67.4464 67.753C66.8943 67.9164 66.2295 68 65.4558 68C64.8419 68 64.2352 67.9473 63.6395 67.8402C63.1581 67.7548 62.8312 67.2952 62.8984 66.8103L63.0746 65.5461C63.1472 65.023 63.6449 64.6652 64.1589 64.776C64.1644 64.7778 64.168 64.7778 64.1716 64.7797C64.3932 64.8269 64.6221 64.8541 64.8491 64.8578C65.3377 64.8668 65.7427 64.8287 66.0642 64.7433C66.3548 64.6652 66.6019 64.5453 66.8053 64.3801C67.0087 64.2148 67.1776 64.0023 67.3139 63.7407C67.4483 63.4792 67.5936 63.1631 67.7498 62.7962L68.2765 61.4903C68.3673 61.2651 68.3655 61.0144 68.2711 60.791L63.0001 48.3456C62.744 47.7444 63.1872 47.0742 63.8429 47.0742Z" fill="#1D1114"/>
<path d="M82.9219 49.0216H82.98C83.2507 48.4404 83.7302 47.9119 84.4185 47.4378C85.1051 46.9638 85.9915 46.7258 87.0776 46.7258C88.0076 46.7258 88.7977 46.882 89.4461 47.1908C90.0945 47.5014 90.6231 47.9082 91.0299 48.4114C91.4368 48.9163 91.7274 49.4975 91.9018 50.155C92.0761 50.8143 92.1633 51.5009 92.1633 52.2184V60.1084C92.1633 60.6134 91.7528 61.0239 91.2479 61.0239H89.5914C89.0865 61.0239 88.676 60.6134 88.676 60.1084V53.962C88.676 53.5751 88.656 53.1429 88.6179 52.6688C88.5779 52.1948 88.4762 51.7479 88.3127 51.332C88.1474 50.9161 87.8913 50.5673 87.5426 50.2858C87.1939 50.0061 86.718 49.8644 86.1186 49.8644C85.5374 49.8644 85.047 49.9607 84.651 50.155C84.2533 50.3494 83.9245 50.6109 83.663 50.9397C83.4014 51.2684 83.2125 51.648 83.0963 52.0731C82.98 52.4999 82.9219 52.9449 82.9219 53.4099V60.1084C82.9219 60.6134 82.5114 61.0239 82.0065 61.0239H80.35C79.8451 61.0239 79.4346 60.6134 79.4346 60.1084V39.9691C79.4346 39.4642 79.8451 39.0537 80.35 39.0537H82.0065C82.5114 39.0537 82.9219 39.4642 82.9219 39.9691V49.0216Z" fill="#1D1114"/>
</svg>
